<svg xmlns="http://www.w3.org/2000/svg" viewBox="0 0 96 96" role="img" aria-label="Laura, del equipo de Kápital">
  <defs>
    <linearGradient id="av-bg" x1="0" y1="0" x2="1" y2="1">
      <stop offset="0" stop-color="#6C5CE7"/>
      <stop offset="1" stop-color="#00E0B8"/>
    </linearGradient>
    <clipPath id="av-clip"><circle cx="48" cy="48" r="48"/></clipPath>
  </defs>
  <g clip-path="url(#av-clip)">
    <rect width="96" height="96" fill="url(#av-bg)"/>
    <!-- hombros -->
    <path d="M18 96c0-16.5 13.5-27 30-27s30 10.5 30 27z" fill="#F5F4FF"/>
    <!-- cuello -->
    <rect x="41" y="55" width="14" height="16" rx="7" fill="#F0C7A8"/>
    <!-- cara -->
    <circle cx="48" cy="45" r="18" fill="#FAD7BD"/>
    <!-- pelo -->
    <path d="M28 46c0-12 9-21 20-21s20 8 20 21c0-6-3-8-6-8-2-6-8-9-14-9-9 0-16 7-16 17 0 2 .3 4 .8 6C31 50 28 49 28 46z" fill="#3A2E2A"/>
    <path d="M30 44c-3 0-5 3-5 8s3 10 5 10c-1-6-1-12 0-18z" fill="#3A2E2A"/>
    <path d="M66 44c3 0 5 3 5 8s-3 10-5 10c1-6 1-12 0-18z" fill="#3A2E2A"/>
    <!-- ojos -->
    <circle cx="41" cy="44" r="2.2" fill="#2A2440"/>
    <circle cx="55" cy="44" r="2.2" fill="#2A2440"/>
    <!-- sonrisa -->
    <path d="M42 51c2 2.5 10 2.5 12 0" fill="none" stroke="#B5654A" stroke-width="2" stroke-linecap="round"/>
  </g>
</svg>
